# xmcd
#
# Track frame offsets:
#	150
#	17782
#	34859
#
# Disc length: 640 seconds
#
# Revision: 0
# Processed by: cddbd v1.5.2PL0 Copyright (c) Steve Scherf et al.
# Submitted via: audiograbber 1.82.01
#
DISCID=1c027e03
DTITLE=Pussycat Dolls - Buttons (Single)
DYEAR=1900
DGENRE=
TTITLE0=Buttons Feat. Snoop Dogg
TTITLE1=Buttons (Album Version)
TTITLE2=Flirt
EXTD=
EXTT0=
EXTT1=
EXTT2=
PLAYORDER=
